PathFileType	4	(X/Y/Z)	/Users/itak/Documents/Research/Walk-IL/dataset/trc/00415_00012.trc
DataRate	CameraRate	NumFrames	NumMarkers	Units	OrigDataRate	OrigDataStartFrame	OrigNumFrames
100.000000	100.000000	4	53	mm	100.000000	115	924
Frame#	Time	RPSI			LPSI			L3			STRN			T10			C7			CLAV			RBAK			LBAK			LSHO			LUPA			LAEL			LAOL			LWTS			LWPS			LFRA			LIFD			LHPS			LHTS			RSHO			RUPA			RAEL			RAOL			RWTS			RWPS			RFRA			RIFD			RHTS			RHPS			RBHD			LFHD			RFHD			LBHD			LHIP			RHIP			RASI			LASI			LKNE			LTHI			LANK			LTIP			LTOE			LMT1			LMT5			LHEE			RKNE			RTHI			RANK			RTIP			RTOE			RMT1			RMT5			RHEE			
		X1	Y1	Z1	X2	Y2	Z2	X3	Y3	Z3	X4	Y4	Z4	X5	Y5	Z5	X6	Y6	Z6	X7	Y7	Z7	X8	Y8	Z8	X9	Y9	Z9	X10	Y10	Z10	X11	Y11	Z11	X12	Y12	Z12	X13	Y13	Z13	X14	Y14	Z14	X15	Y15	Z15	X16	Y16	Z16	X17	Y17	Z17	X18	Y18	Z18	X19	Y19	Z19	X20	Y20	Z20	X21	Y21	Z21	X22	Y22	Z22	X23	Y23	Z23	X24	Y24	Z24	X25	Y25	Z25	X26	Y26	Z26	X27	Y27	Z27	X28	Y28	Z28	X29	Y29	Z29	X30	Y30	Z30	X31	Y31	Z31	X32	Y32	Z32	X33	Y33	Z33	X34	Y34	Z34	X35	Y35	Z35	X36	Y36	Z36	X37	Y37	Z37	X38	Y38	Z38	X39	Y39	Z39	X40	Y40	Z40	X41	Y41	Z41	X42	Y42	Z42	X43	Y43	Z43	X44	Y44	Z44	X45	Y45	Z45	X46	Y46	Z46	X47	Y47	Z47	X48	Y48	Z48	X49	Y49	Z49	X50	Y50	Z50	X51	Y51	Z51	X52	Y52	Z52	X53	Y53	Z53	

116	1.15	-1572.579467773438	991.4321899414062	-607.125732421875	-1587.626953125	983.6838989257812	-737.3165893554688	-1578.909057617188	1057.954467773438	-669.9985961914062	-1344.15185546875	1215.044677734375	-681.9598388671875	-1590.8955078125	1161.896484375	-672.3179931640625	-1554.739135742188	1410.64453125	-684.0394287109375	-1397.041381835938	1333.447021484375	-679.9942626953125	-1592.895874023438	1264.24609375	-614.88671875	-1567.957275390625	1373.588623046875	-788.5123901367188	-1481.448852539062	1389.414794921875	-838.624755859375	-1493.788818359375	1272.336303710938	-910.2139282226562	-1456.847412109375	1074.817016601562	-928.3848876953125	-1519.635620117188	1051.16015625	-876.541748046875	-1356.507934570312	867.8860473632812	-861.3272094726562	-1395.451171875	847.3743286132812	-931.1175537109375	-1430.550659179688	971.630126953125	-931.825439453125	-1343.87353515625	687.6336669921875	-861.0194091796875	-1375.096557617188	764.0347900390625	-916.6810913085938	-1329.385620117188	772.0797729492188	-873.5132446289062	-1489.386962890625	1389.017822265625	-525.7891235351562	-1494.343017578125	1323.323974609375	-465.6672973632812	-1465.238525390625	1058.82080078125	-432.4925842285156	-1498.55712890625	1051.197387695312	-519.0851440429688	-1337.587768554688	850.371826171875	-506.0176391601562	-1359.02392578125	833.9724731445312	-437.9195251464844	-1432.537353515625	994.1321411132812	-425.5943603515625	-1323.602661132812	674.9454956054688	-504.8802185058594	-1312.202758789062	745.9275512695312	-498.619384765625	-1352.2236328125	748.7462158203125	-442.0396118164062	-1513.246948242188	1613.9638671875	-624.9609985351562	-1349.648315429688	1590.473266601562	-738.9112548828125	-1379.9375	1613.04248046875	-621.6884765625	-1491.858032226562	1583.099853515625	-782.8469848632812	-1509.837768554688	971.1529541015625	-856.824462890625	-1482.255981445312	965.7509765625	-499.1347961425781	-1353.480346679688	972.427490234375	-563.8796997070312	-1393.145629882812	967.4531860351562	-824.5261840820312	-1467.859252929688	475.7220458984375	-836.2525634765625	-1472.402587890625	618.0537109375	-847.608642578125	-1560.96044921875	44.69910430908203	-781.7120361328125	-1517.701171875	246.1578826904297	-821.6488647460938	-1343.102783203125	43.53781509399414	-739.9327392578125	-1419.443603515625	44.53734588623047	-702.0215454101562	-1435.7109375	43.13322448730469	-806.6311645507812	-1591.904296875	40.16799163818359	-721.4290161132812	-1460.196044921875	475.4049377441406	-523.3788452148438	-1408.448608398438	737.4873657226562	-508.5964660644531	-1521.434204101562	58.88262557983398	-555.030517578125	-1455.91845703125	349.5221252441406	-539.798583984375	-1341.019287109375	39.61369705200195	-618.0040283203125	-1417.948364257812	43.62460708618164	-647.405029296875	-1437.745239257812	48.37123107910156	-549.818603515625	-1594.98681640625	44.95766067504883	-608.499267578125	
117	1.16	-1572.547973632812	991.44580078125	-607.2099609375	-1587.526611328125	983.680908203125	-737.4088745117188	-1578.863647460938	1057.9619140625	-670.0887451171875	-1344.103881835938	1214.998779296875	-682.0090942382812	-1590.793701171875	1161.906982421875	-672.408203125	-1554.645629882812	1410.6533203125	-684.1255493164062	-1396.911010742188	1333.430541992188	-680.018798828125	-1592.814697265625	1264.269897460938	-614.9566040039062	-1567.83740234375	1373.566528320312	-788.6095581054688	-1481.311767578125	1389.3857421875	-838.7142333984375	-1493.683959960938	1272.303833007812	-910.2777099609375	-1456.7392578125	1074.784423828125	-928.4396362304688	-1519.541870117188	1051.1298828125	-876.6190795898438	-1356.558349609375	867.8040771484375	-861.3849487304688	-1395.335205078125	847.33544921875	-931.1708374023438	-1430.447387695312	971.5971069335938	-931.8738403320312	-1343.598876953125	687.5703125	-860.9508666992188	-1375.109497070312	764.0148315429688	-916.713623046875	-1329.129028320312	772.0216064453125	-873.5294799804688	-1489.293579101562	1389.03662109375	-525.8818359375	-1494.242065429688	1323.34912109375	-465.7464294433594	-1465.186401367188	1058.835205078125	-432.5490417480469	-1498.535522460938	1051.2109375	-519.1334228515625	-1337.560424804688	850.356689453125	-506.0184631347656	-1359.015625	833.972900390625	-437.9448852539062	-1432.49169921875	994.1426391601562	-425.6275634765625	-1323.719604492188	674.8985595703125	-504.876708984375	-1312.340087890625	745.8956298828125	-498.6657104492188	-1352.322509765625	748.7570190429688	-442.0780944824219	-1513.171752929688	1613.974365234375	-625.0419921875	-1349.564819335938	1590.438598632812	-738.9225463867188	-1379.807983398438	1613.022094726562	-621.7349853515625	-1491.711547851562	1583.151733398438	-782.96923828125	-1509.631103515625	971.1275024414062	-856.9010009765625	-1482.216674804688	965.7601318359375	-499.2074279785156	-1353.428955078125	972.41357421875	-563.9194946289062	-1393.052978515625	967.4702758789062	-824.5762939453125	-1467.824951171875	475.7117004394531	-836.2730712890625	-1472.233642578125	618.00634765625	-847.6304931640625	-1560.960815429688	44.70064163208008	-781.716064453125	-1517.6748046875	246.1514892578125	-821.6638793945312	-1343.10302734375	43.5382194519043	-739.9265747070312	-1419.462524414062	44.52947235107422	-702.0219116210938	-1435.71240234375	43.13307571411133	-806.6337890625	-1591.896606445312	40.16392135620117	-721.4295654296875	-1460.197875976562	475.4060363769531	-523.39453125	-1408.41552734375	737.4998168945312	-508.6449890136719	-1521.44921875	58.87907409667969	-555.0250854492188	-1455.976684570312	349.5167236328125	-539.8522338867188	-1341.039306640625	39.61516571044922	-618.001953125	-1417.955688476562	43.62848663330078	-647.3977661132812	-1437.760131835938	48.37823486328125	-549.8190307617188	-1594.977905273438	44.95410919189453	-608.4993286132812	
118	1.17	-1572.524658203125	991.4596557617188	-607.2978515625	-1587.423095703125	983.6797485351562	-737.5042724609375	-1578.813110351562	1057.970092773438	-670.177734375	-1344.066528320312	1214.946411132812	-682.0546264648438	-1590.680541992188	1161.917602539062	-672.4984130859375	-1554.541625976562	1410.664672851562	-684.2047729492188	-1396.792236328125	1333.405517578125	-680.0460205078125	-1592.731201171875	1264.29345703125	-615.024169921875	-1567.720581054688	1373.547119140625	-788.70361328125	-1481.178466796875	1389.356323242188	-838.8040161132812	-1493.580688476562	1272.272827148438	-910.3408203125	-1456.641723632812	1074.755615234375	-928.4926147460938	-1519.449462890625	1051.10205078125	-876.6947021484375	-1356.679565429688	867.6914672851562	-861.4840087890625	-1395.222900390625	847.302001953125	-931.2301025390625	-1430.34423828125	971.5671997070312	-931.9222412109375	-1343.3046875	687.5164794921875	-860.8759765625	-1375.119262695312	763.993896484375	-916.7498168945312	-1328.850708007812	771.9675903320312	-873.548828125	-1489.202392578125	1389.053466796875	-525.9741821289062	-1494.13671875	1323.371704101562	-465.8276062011719	-1465.12060546875	1058.846923828125	-432.6013793945312	-1498.52490234375	1051.225463867188	-519.1812744140625	-1337.530395507812	850.3353271484375	-506.0202941894531	-1359.001220703125	833.9713745117188	-437.970458984375	-1432.43603515625	994.15185546875	-425.6636657714844	-1323.821655273438	674.8390502929688	-504.8697814941406	-1312.43701171875	745.8568115234375	-498.7004699707031	-1352.422607421875	748.7681884765625	-442.1159057617188	-1513.084106445312	1613.981567382812	-625.132568359375	-1349.475952148438	1590.401733398438	-738.9400024414062	-1379.685424804688	1613.003784179688	-621.7839965820312	-1491.587158203125	1583.20849609375	-783.1055297851562	-1509.438232421875	971.1053466796875	-856.98193359375	-1482.1689453125	965.768310546875	-499.2854919433594	-1353.36767578125	972.4022827148438	-563.96484375	-1392.946166992188	967.4876098632812	-824.6295166015625	-1467.785766601562	475.7013549804688	-836.2931518554688	-1472.060424804688	617.957275390625	-847.6510009765625	-1560.960815429688	44.70129013061523	-781.71923828125	-1517.644775390625	246.1449279785156	-821.6796875	-1343.103515625	43.53836441040039	-739.9210205078125	-1419.484008789062	44.5198974609375	-702.0222778320312	-1435.713500976562	43.13288497924805	-806.635986328125	-1591.887939453125	40.15884017944336	-721.4306640625	-1460.203247070312	475.4086608886719	-523.4077758789062	-1408.383911132812	737.514892578125	-508.6967163085938	-1521.46533203125	58.87385177612305	-555.015869140625	-1456.010620117188	349.512939453125	-539.8820190429688	-1341.060791015625	39.62236404418945	-618.0023803710938	-1417.964965820312	43.63529968261719	-647.3861694335938	-1437.763061523438	48.38318252563477	-549.8179321289062	-1594.953125	44.95545959472656	-608.4963989257812	
119	1.18	-1572.505737304688	991.4740600585938	-607.3884887695312	-1587.31787109375	983.6808471679688	-737.6021728515625	-1578.755737304688	1057.97998046875	-670.2640991210938	-1344.040161132812	1214.88818359375	-682.0955200195312	-1590.561645507812	1161.9287109375	-672.587158203125	-1554.4228515625	1410.678955078125	-684.277587890625	-1396.685302734375	1333.3740234375	-680.0784912109375	-1592.642700195312	1264.317016601562	-615.0907592773438	-1567.60595703125	1373.533203125	-788.7953491210938	-1481.043212890625	1389.328002929688	-838.8927001953125	-1493.476684570312	1272.245361328125	-910.4038696289062	-1456.549194335938	1074.731689453125	-928.5470581054688	-1519.356689453125	1051.078735351562	-876.7704467773438	-1356.827758789062	867.5592651367188	-861.6018676757812	-1395.114624023438	847.2755126953125	-931.2953491210938	-1430.241821289062	971.5421752929688	-931.9716186523438	-1343.020629882812	687.4795532226562	-860.8109741210938	-1375.120239257812	763.9728393554688	-916.7897338867188	-1328.575561523438	771.9239501953125	-873.5763549804688	-1489.114379882812	1389.068481445312	-526.0643310546875	-1494.027954101562	1323.392333984375	-465.91015625	-1465.039672851562	1058.856201171875	-432.6506652832031	-1498.523071289062	1051.240844726562	-519.232177734375	-1337.498291015625	850.3085327148438	-506.0237426757812	-1358.980712890625	833.9681396484375	-437.9968566894531	-1432.372924804688	994.161376953125	-425.7047729492188	-1323.896240234375	674.77197265625	-504.8572082519531	-1312.469116210938	745.8111572265625	-498.7161560058594	-1352.51416015625	748.7786865234375	-442.1495361328125	-1512.980590820312	1613.986938476562	-625.22998046875	-1349.379516601562	1590.365600585938	-738.9688110351562	-1379.564086914062	1612.9873046875	-621.8341064453125	-1491.478271484375	1583.265625	-783.24462890625	-1509.261474609375	971.0875854492188	-857.0662231445312	-1482.112060546875	965.775390625	-499.3686218261719	-1353.3056640625	972.3894653320312	-564.0177001953125	-1392.816162109375	967.507568359375	-824.6869506835938	-1467.73974609375	475.6903991699219	-836.3129272460938	-1471.89501953125	617.9097900390625	-847.6727294921875	-1560.960693359375	44.70075225830078	-781.7213134765625	-1517.61181640625	246.1383361816406	-821.6962890625	-1343.104736328125	43.53813934326172	-739.91650390625	-1419.503173828125	44.51083755493164	-702.0233154296875	-1435.7138671875	43.13268661499023	-806.6371459960938	-1591.879638671875	40.15470504760742	-721.4320678710938	-1460.212036132812	475.4128112792969	-523.4169311523438	-1408.352905273438	737.53173828125	-508.7495727539062	-1521.481079101562	58.866943359375	-555.0026245117188	-1456.00390625	349.5135498046875	-539.8749389648438	-1341.084838867188	39.63372421264648	-618.00537109375	-1417.976806640625	43.64543533325195	-647.370361328125	-1437.741821289062	48.38124847412109	-549.814208984375	-1594.913940429688	44.96340942382812	-608.4901733398438	
